<?xml version="1.0" encoding="UTF-8"?>
<!DOCTYPE svg PUBLIC "-//W3C//DTD SVG 1.1//EN" "http://www.w3.org/Graphics/SVG/1.1/DTD/svg11.dtd">
<!-- Creator: CorelDRAW X8 -->
<svg xmlns="http://www.w3.org/2000/svg" xml:space="preserve" width="52.2159mm" height="29.9001mm" version="1.1" style="shape-rendering:geometricPrecision; text-rendering:geometricPrecision; image-rendering:optimizeQuality; fill-rule:evenodd; clip-rule:evenodd"
viewBox="0 0 3519 2015"
 xmlns:xlink="http://www.w3.org/1999/xlink">
 <defs>
  <style type="text/css">
   <![CDATA[
    .fil5 {fill:#9D9E9E}
    .fil4 {fill:#63B338}
    .fil0 {fill:#435E25}
    .fil3 {fill:#898989}
    .fil1 {fill:#5B5B5B}
    .fil2 {fill:#569734}
    .fil7 {fill:#2B2A29;fill-rule:nonzero}
    .fil8 {fill:#898989;fill-rule:nonzero}
    .fil6 {fill:#569734;fill-rule:nonzero}
   ]]>
  </style>
 </defs>
 <g id="Слой_x0020_1">
  <metadata id="CorelCorpID_0Corel-Layer"/>
  <g id="_826773728">
   <path class="fil0" d="M671 1030c61,0 110,49 110,110 0,61 -49,111 -110,111 -61,0 -111,-50 -111,-111 0,-61 50,-110 111,-110z"/>
   <path class="fil1" d="M962 1030c61,0 110,49 110,110 0,61 -49,111 -110,111 -61,0 -110,-50 -110,-111 0,-61 49,-110 110,-110z"/>
   <path class="fil2" d="M375 1030c61,0 110,49 110,110 0,61 -49,111 -110,111 -61,0 -111,-50 -111,-111 0,-61 50,-110 111,-110z"/>
   <path class="fil3" d="M375 742c61,0 110,50 110,111 0,61 -49,110 -110,110 -61,0 -111,-49 -111,-110 0,-61 50,-111 111,-111z"/>
   <path class="fil1" d="M666 742c61,0 111,50 111,111 0,61 -50,110 -111,110 -61,0 -110,-49 -110,-110 0,-61 49,-111 110,-111z"/>
   <path class="fil1" d="M962 742c61,0 110,50 110,111 0,61 -49,110 -110,110 -61,0 -110,-49 -110,-110 0,-61 49,-111 110,-111z"/>
   <path class="fil3" d="M962 480c47,0 85,38 85,85 0,48 -38,86 -85,86 -47,0 -85,-38 -85,-86 0,-47 38,-85 85,-85z"/>
   <path class="fil3" d="M668 480c48,0 86,38 86,85 0,48 -38,86 -86,86 -47,0 -85,-38 -85,-86 0,-47 38,-85 85,-85z"/>
   <path class="fil1" d="M668 1338c48,0 86,38 86,85 0,48 -38,86 -86,86 -47,0 -85,-38 -85,-86 0,-47 38,-85 85,-85z"/>
   <path class="fil1" d="M966 1338c47,0 86,38 86,85 0,48 -39,86 -86,86 -47,0 -85,-38 -85,-86 0,-47 38,-85 85,-85z"/>
   <path class="fil4" d="M85 1055c48,0 86,38 86,85 0,47 -38,86 -86,86 -47,0 -85,-39 -85,-86 0,-47 38,-85 85,-85z"/>
   <path class="fil3" d="M1252 1055c47,0 85,38 85,85 0,47 -38,86 -85,86 -48,0 -86,-39 -86,-86 0,-47 38,-85 86,-85z"/>
   <path class="fil5" d="M1512 1074c37,0 67,29 67,66 0,37 -30,67 -67,67 -37,0 -67,-30 -67,-67 0,-37 30,-66 67,-66z"/>
   <path class="fil5" d="M966 238c37,0 67,30 67,67 0,37 -30,67 -67,67 -37,0 -66,-30 -66,-67 0,-37 29,-67 66,-67z"/>
   <path class="fil5" d="M674 238c37,0 66,30 66,67 0,37 -29,67 -66,67 -37,0 -67,-30 -67,-67 0,-37 30,-67 67,-67z"/>
   <path class="fil5" d="M970 0c25,0 44,20 44,44 0,24 -19,43 -44,43 -24,0 -43,-19 -43,-43 0,-24 19,-44 43,-44z"/>
   <path class="fil1" d="M665 1621c37,0 67,30 67,67 0,37 -30,66 -67,66 -36,0 -66,-29 -66,-66 0,-37 30,-67 66,-67z"/>
   <path class="fil3" d="M370 1621c36,0 66,30 66,67 0,37 -30,66 -66,66 -37,0 -67,-29 -67,-66 0,-37 30,-67 67,-67z"/>
   <path class="fil1" d="M376 1344c47,0 85,39 85,86 0,47 -38,85 -85,85 -47,0 -85,-38 -85,-85 0,-47 38,-86 85,-86z"/>
   <g>
    <path class="fil6" d="M1468 1711c3,7 5,12 7,16 1,5 0,8 -2,10 -3,2 -7,4 -13,4 -7,1 -16,1 -27,1 -9,0 -17,0 -22,0 -6,-1 -10,-1 -13,-2 -3,-1 -5,-2 -7,-4 -1,-2 -2,-4 -3,-6l-74 -141 -73 141c-1,2 -2,4 -4,6 -1,2 -3,3 -6,4 -4,1 -8,1 -13,2 -6,0 -13,0 -22,0 -11,0 -19,0 -25,-1 -5,0 -9,-2 -11,-4 -2,-2 -3,-5 -1,-10 1,-4 3,-9 7,-16l94 -171 -87 -160c-4,-7 -6,-13 -8,-17 -1,-5 -1,-8 2,-10 2,-2 6,-4 13,-4 6,-1 15,-1 26,-1 10,0 17,0 23,1 5,0 10,1 13,2 3,1 5,2 7,4 1,1 2,3 3,6l69 129 67 -129c1,-3 2,-5 3,-6 2,-2 4,-3 7,-4 3,-1 7,-2 12,-2 5,-1 12,-1 21,-1 10,0 18,0 24,1 6,0 10,2 12,4 2,2 3,5 2,10 -1,4 -4,10 -7,17l-87 159 93 172zm276 -4c0,6 0,11 0,16 -1,4 -2,7 -3,10 -1,3 -2,4 -4,6 -1,1 -3,1 -5,1l-179 0c-6,0 -12,-1 -16,-5 -5,-4 -7,-11 -7,-20l0 -354c0,-2 0,-4 2,-6 1,-1 3,-3 6,-3 3,-2 7,-2 12,-3 6,-1 12,-1 20,-1 7,0 14,0 19,1 5,1 9,1 12,3 3,0 5,2 6,3 2,2 2,4 2,6l0 314 123 0c2,0 4,1 5,2 2,1 3,3 4,5 1,3 2,6 3,10 0,4 0,9 0,15z"/>
    <path class="fil7" d="M2246 1730c0,2 0,3 -2,5 -1,2 -3,3 -6,4 -2,1 -6,2 -11,2 -5,1 -11,1 -19,1 -7,0 -13,0 -18,-1 -5,0 -8,-1 -11,-2 -3,-1 -5,-2 -6,-4 -1,-2 -2,-3 -2,-5l0 -318 -1 0 -113 317c-1,3 -2,5 -4,7 -2,1 -4,3 -7,4 -3,1 -7,1 -12,2 -5,0 -11,0 -17,0 -7,0 -13,0 -18,-1 -5,0 -9,-1 -12,-2 -3,-1 -5,-2 -7,-4 -2,-2 -3,-4 -4,-6l-109 -317 -1 0 0 318c0,2 0,3 -2,5 -1,2 -3,3 -6,4 -3,1 -6,2 -11,2 -5,1 -11,1 -19,1 -7,0 -13,0 -18,-1 -4,0 -8,-1 -11,-2 -3,-1 -5,-2 -6,-4 -1,-2 -2,-3 -2,-5l0 -348c0,-11 3,-18 8,-24 6,-5 13,-8 22,-8l52 0c9,0 17,1 24,2 6,2 12,4 17,8 5,3 9,8 12,14 3,5 6,12 8,21l85 233 1 0 88 -232c2,-9 5,-16 8,-22 3,-6 7,-10 11,-14 4,-4 9,-6 15,-8 5,-1 12,-2 19,-2l54 0c5,0 10,1 14,2 4,1 7,4 9,6 3,3 5,6 6,10 1,4 2,9 2,14l0 348zm317 -21c0,6 -1,11 -1,15 -1,4 -1,7 -2,10 -1,2 -3,4 -4,5 -2,1 -3,1 -5,1l-196 0c-7,0 -12,-1 -17,-5 -5,-4 -7,-11 -7,-20l0 -340c0,-9 2,-15 7,-19 5,-4 10,-6 17,-6l195 0c2,0 3,0 4,2 2,0 3,2 4,5 1,2 2,6 2,9 1,4 1,9 1,15 0,6 0,11 -1,15 0,4 -1,7 -2,9 -1,3 -2,4 -4,5 -1,2 -2,2 -4,2l-140 0 0 95 118 0c2,0 4,1 5,2 2,1 3,3 4,5 1,3 2,6 2,10 1,4 1,8 1,14 0,6 0,11 -1,14 0,4 -1,7 -2,10 -1,2 -2,4 -4,5 -1,1 -3,1 -5,1l-118 0 0 110 141 0c2,0 3,1 5,2 1,1 3,3 4,5 1,3 1,6 2,10 0,4 1,9 1,14zm394 -169c0,35 -5,66 -14,91 -9,26 -23,47 -40,63 -18,16 -39,28 -64,35 -25,8 -55,11 -90,11l-93 0c-6,0 -12,-1 -17,-5 -4,-4 -6,-11 -6,-20l0 -340c0,-9 2,-15 6,-19 5,-4 11,-6 17,-6l100 0c35,0 65,4 89,12 24,8 45,20 61,36 17,16 29,36 38,60 9,23 13,51 13,82zm-82 2c0,-18 -2,-35 -6,-51 -5,-16 -12,-30 -21,-42 -10,-11 -22,-21 -37,-27 -15,-7 -35,-10 -59,-10l-40 0 0 266 41 0c22,0 40,-3 55,-9 15,-5 27,-14 37,-25 10,-12 18,-26 23,-43 5,-17 7,-36 7,-59zm227 188c0,2 -1,3 -2,5 -1,2 -4,3 -7,4 -3,1 -7,2 -12,2 -5,1 -11,1 -19,1 -8,0 -14,0 -19,-1 -5,0 -9,-1 -12,-2 -3,-1 -5,-2 -7,-4 -1,-2 -2,-3 -2,-5l0 -369c0,-2 1,-4 2,-6 2,-1 4,-3 7,-3 3,-2 7,-2 12,-3 5,-1 11,-1 19,-1 8,0 14,0 19,1 5,1 9,1 12,3 3,0 6,2 7,3 1,2 2,4 2,6l0 369zm405 -19c2,7 4,13 4,17 1,4 0,8 -2,10 -2,2 -6,3 -12,3 -5,1 -13,1 -23,1 -10,0 -18,0 -24,0 -6,-1 -10,-1 -13,-2 -3,-1 -5,-2 -6,-4 -2,-1 -3,-3 -3,-6l-27 -79 -146 0 -25 77c-1,3 -2,5 -3,7 -2,2 -4,3 -7,4 -2,1 -7,2 -12,3 -5,0 -12,0 -21,0 -9,0 -16,0 -22,-1 -5,0 -9,-2 -11,-4 -2,-2 -2,-6 -2,-10 1,-4 2,-10 5,-17l120 -346c1,-4 3,-6 4,-8 2,-3 5,-4 8,-5 4,-1 9,-2 15,-2 6,-1 14,-1 25,-1 11,0 21,0 28,1 7,0 12,1 16,2 4,1 7,2 9,5 2,2 3,5 4,9l121 346zm-179 -286l-1 0 -55 165 111 0 -55 -165z"/>
   </g>
   <path class="fil8" d="M1127 2011l64 -160 22 0 63 160 -25 0 -17 -44 -68 0 -18 44 -21 0zm45 -61l55 0 -27 -69 -28 69zm127 61l0 -160 53 0c21,0 36,3 47,9 11,6 19,14 25,26 6,11 9,25 9,41 0,16 -3,30 -8,42 -6,13 -14,23 -25,31 -12,7 -27,11 -47,11l-54 0zm23 -17l29 0c15,0 26,-2 34,-7 8,-5 13,-12 18,-23 4,-10 6,-22 6,-35 0,-11 -2,-21 -5,-30 -4,-10 -10,-17 -18,-23 -9,-5 -24,-8 -45,-8l-19 0 0 126zm187 17l-61 -160 23 0 50 131 48 -131 20 0 -59 160 -21 0zm101 0l0 -160 90 0 0 17 -67 0 0 51 56 0 0 17 -56 0 0 58 72 0 0 17 -95 0zm121 0l0 -160 48 0c18,0 31,4 37,12 7,8 11,17 11,28 0,6 -1,12 -4,18 -2,6 -6,11 -10,15 -5,5 -11,9 -19,12l54 75 -28 0 -46 -68 -21 0 0 68 -22 0zm22 -85l8 0c16,0 28,-3 34,-10 6,-7 8,-15 8,-23 0,-5 -1,-10 -3,-13 -2,-4 -5,-7 -10,-9 -5,-2 -12,-3 -23,-3l-14 0 0 58zm156 85l0 -143 -57 0 0 -17 137 0 0 17 -57 0 0 143 -23 0zm102 0l0 -160 23 0 0 160 -23 0zm54 -3l0 -22c13,6 23,9 29,10 6,2 11,2 16,2 10,0 17,-2 22,-7 6,-5 8,-11 8,-18 0,-6 -1,-11 -4,-15 -3,-4 -10,-10 -21,-16l-11 -7c-15,-8 -25,-16 -30,-22 -5,-7 -8,-15 -8,-24 0,-7 2,-14 6,-21 4,-7 10,-12 17,-16 6,-3 15,-5 25,-5 13,0 26,2 40,6l0 21c-12,-5 -21,-8 -25,-9 -5,-1 -9,-1 -14,-1 -9,0 -16,2 -20,7 -5,5 -7,10 -7,15 0,3 1,7 3,11 2,3 5,6 9,9 3,2 8,5 14,9l12 6c15,9 25,17 30,24 5,7 8,15 8,24 0,12 -5,23 -15,32 -9,10 -23,14 -42,14 -6,0 -11,0 -17,-1 -5,-1 -13,-3 -25,-6zm130 3l0 -160 22 0 0 160 -22 0zm64 0l0 -160 22 0 81 124 0 -124 19 0 0 160 -22 0 -81 -124 0 124 -19 0zm284 -4c-14,4 -24,6 -31,7 -6,1 -13,1 -20,1 -19,0 -34,-3 -45,-10 -11,-7 -19,-17 -25,-30 -6,-13 -9,-28 -9,-44 0,-25 7,-45 20,-60 13,-16 33,-24 59,-24 16,0 33,2 51,7l0 21c-16,-5 -28,-9 -34,-10 -6,-1 -11,-1 -17,-1 -19,0 -33,6 -42,20 -8,13 -13,29 -13,47 0,12 2,23 6,32 4,11 10,19 18,25 9,7 20,10 35,10 4,0 7,0 10,0 4,-1 8,-2 15,-4l0 -52 22 0 0 65zm91 4l64 -160 22 0 63 160 -24 0 -18 -44 -68 0 -17 44 -22 0zm46 -61l54 0 -27 -69 -27 69zm247 57c-14,4 -24,6 -31,7 -6,1 -13,1 -20,1 -19,0 -34,-3 -45,-10 -11,-7 -20,-17 -25,-30 -6,-13 -9,-28 -9,-44 0,-25 6,-45 20,-60 13,-16 32,-24 59,-24 16,0 33,2 51,7l0 21c-17,-5 -28,-9 -34,-10 -6,-1 -12,-1 -17,-1 -19,0 -33,6 -42,20 -9,13 -13,29 -13,47 0,12 2,23 6,32 3,11 9,19 18,25 9,7 20,10 35,10 3,0 7,0 10,0 3,-1 8,-2 14,-4l0 -52 23 0 0 65zm40 4l0 -160 90 0 0 17 -67 0 0 51 56 0 0 17 -56 0 0 58 71 0 0 17 -94 0zm120 0l0 -160 22 0 81 124 0 -124 20 0 0 160 -23 0 -80 -124 0 124 -20 0zm284 -8c-6,3 -12,6 -17,8 -5,1 -11,2 -16,3 -6,1 -12,1 -18,1 -27,0 -47,-8 -60,-24 -12,-16 -18,-36 -18,-60 0,-24 6,-45 19,-60 13,-16 33,-24 60,-24 14,0 31,2 50,7l0 21c-16,-5 -27,-9 -33,-10 -6,-1 -12,-1 -18,-1 -19,0 -33,6 -41,19 -9,13 -13,29 -13,48 0,20 5,36 15,48 10,12 24,18 42,18 5,0 10,0 15,-1 5,-1 10,-2 15,-4 5,-2 11,-5 18,-8l0 19zm68 8l0 -67 -53 -93 26 0 41 72 45 -72 21 0 -57 93 0 67 -23 0z"/>
  </g>
 </g>
</svg>
